<svg width="1184" height="464" viewBox="0 0 1184 464" fill="none" xmlns="http://www.w3.org/2000/svg">
<path d="M-835.457 431.371C-835.457 431.371 -829.582 462.14 -804.067 477.19C-771.234 496.555 -716.788 488.644 -678.508 506.039C-654.768 516.826 -658.954 529.336 -631.424 538.281C-584.871 553.408 -532.486 525.494 -482.323 538.281C-449.533 546.64 -451.34 561.476 -419.543 570.524C-375.348 583.1 -321.251 563.592 -286.137 580.706C-266.495 590.279 -276.979 601.196 -258.671 611.252C-209.378 638.327 -103.803 584.133 -54.6384 611.252C-32.8103 623.292 -47.7546 636.141 -27.1725 648.585C27.2097 681.464 151.748 617.743 212.174 648.585C245.102 665.393 208.492 688.716 247.487 702.889C292.064 719.09 346.366 690.145 396.588 702.889C438.382 713.494 425.252 736.531 467.215 747.01C516.313 759.272 571.68 729.945 612.392 747.01C633.065 755.676 626.223 765.992 643.782 775.859C671.52 791.448 697.527 798.646 741.874 803.011" stroke="white" stroke-opacity="0.24"/>
<path d="M-786.901 430.371C-786.901 430.371 -781.027 461.14 -755.511 476.19C-722.678 495.555 -668.233 487.644 -629.953 505.039C-606.212 515.826 -610.398 528.336 -582.868 537.281C-536.315 552.408 -483.93 524.494 -433.767 537.281C-400.977 545.64 -402.785 560.476 -370.988 569.524C-326.792 582.1 -272.696 562.592 -237.582 579.706C-217.939 589.279 -228.424 600.196 -210.116 610.252C-160.823 637.327 -55.2479 583.133 -6.083 610.252C15.7451 622.292 0.800826 635.141 21.383 647.585C75.7652 680.464 200.304 616.743 260.729 647.585C293.658 664.393 257.047 687.716 296.042 701.889C340.62 718.09 394.921 689.145 445.143 701.889C486.937 712.494 473.808 735.531 515.77 746.01C564.868 758.272 620.235 728.945 660.947 746.01C681.621 754.676 674.778 764.992 692.337 774.859C720.076 790.448 746.082 797.646 790.43 802.011" stroke="white" stroke-opacity="0.24"/>
<path d="M-728.642 411.777C-728.642 411.777 -722.768 442.546 -697.252 457.596C-664.419 476.961 -609.974 469.051 -571.694 486.445C-547.953 497.232 -552.139 509.742 -524.609 518.687C-478.056 533.814 -425.671 505.901 -375.508 518.687C-342.718 527.046 -344.526 541.882 -312.729 550.93C-268.533 563.506 -214.437 543.998 -179.323 561.112C-159.68 570.685 -170.165 581.602 -151.857 591.658C-102.564 618.733 3.0111 564.539 52.176 591.658C74.0041 603.698 59.0599 616.548 79.642 628.992C134.024 661.871 258.563 598.149 318.988 628.992C351.917 645.799 315.306 669.122 354.302 683.295C398.879 699.497 453.18 670.552 503.402 683.295C545.196 693.9 532.067 716.937 574.029 727.417C623.127 739.678 678.494 710.352 719.206 727.417C739.88 736.082 733.038 746.398 750.596 756.265C778.335 771.854 804.341 779.052 848.689 783.417" stroke="white" stroke-opacity="0.24"/>
<path d="M-670.382 393.184C-670.382 393.184 -664.508 423.952 -638.992 439.002C-606.159 458.367 -551.713 450.457 -513.433 467.851C-489.693 478.638 -493.879 491.148 -466.349 500.094C-419.796 515.22 -367.411 487.307 -317.248 500.094C-284.458 508.452 -286.265 523.289 -254.469 532.336C-210.273 544.912 -156.177 525.405 -121.063 542.518C-101.42 552.092 -111.904 563.008 -93.5965 573.064C-44.3037 600.139 61.2714 545.945 110.436 573.064C132.264 585.104 117.32 597.954 137.902 610.398C192.284 643.277 316.823 579.555 377.248 610.398C410.177 627.205 373.567 650.528 412.562 664.701C457.139 680.903 511.441 651.958 561.663 664.701C603.456 675.306 590.327 698.343 632.289 708.823C681.387 721.084 736.755 691.758 777.467 708.823C798.14 717.489 791.298 727.804 808.856 737.672C836.595 753.26 862.602 760.459 906.949 764.823" stroke="white" stroke-opacity="0.24"/>
<path d="M-612.123 374.59C-612.123 374.59 -606.249 405.359 -580.733 420.408C-547.9 439.774 -493.454 431.863 -455.174 449.257C-431.434 460.045 -435.62 472.554 -408.09 481.5C-361.537 496.627 -309.152 468.713 -258.989 481.5C-226.199 489.858 -228.006 504.695 -196.21 513.743C-152.014 526.319 -97.9175 506.811 -62.8035 523.925C-43.1609 533.498 -53.6453 544.414 -35.3375 554.47C13.9553 581.546 119.53 527.352 168.695 554.47C190.523 566.51 175.579 579.36 196.161 591.804C250.543 624.683 375.082 560.962 435.507 591.804C468.436 608.611 431.826 631.935 470.821 646.108C515.398 662.309 569.7 633.364 619.922 646.108C661.715 656.712 648.586 679.75 690.548 690.229C739.646 702.491 795.014 673.164 835.726 690.229C856.399 698.895 849.557 709.211 867.115 719.078C894.854 734.666 920.861 741.865 965.208 746.23" stroke="white" stroke-opacity="0.24"/>
<path d="M-553.863 355.996C-553.863 355.996 -547.988 386.765 -522.473 401.815C-489.64 421.18 -435.194 413.269 -396.914 430.664C-373.174 441.451 -377.36 453.961 -349.83 462.906C-303.277 478.033 -250.892 450.119 -200.729 462.906C-167.939 471.265 -169.746 486.101 -137.949 495.149C-93.7536 507.725 -39.6573 488.217 -4.54322 505.331C15.0993 514.904 4.615 525.821 22.9228 535.877C72.2156 562.952 177.791 508.758 226.956 535.877C248.784 547.917 233.839 560.766 254.422 573.21C308.804 606.089 433.342 542.368 493.768 573.21C526.696 590.018 490.086 613.341 529.081 627.514C573.658 643.715 627.96 614.77 678.182 627.514C719.976 638.119 706.846 661.156 748.809 671.635C797.907 683.897 853.274 654.57 893.986 671.635C914.659 680.301 907.817 690.617 925.376 700.484C953.114 716.073 979.121 723.271 1023.47 727.636" stroke="white" stroke-opacity="0.24"/>
<path d="M-146.466 96.4023C-146.466 96.4023 -140.592 127.171 -115.076 142.221C-82.2433 161.586 -27.7974 153.676 10.4826 171.07C34.2228 181.857 30.0369 194.367 57.5671 203.312C104.12 218.439 156.505 190.526 206.668 203.312C239.458 211.671 237.65 226.507 269.447 235.555C313.643 248.131 367.739 228.623 402.853 245.737C422.496 255.31 412.012 266.227 430.319 276.283C479.612 303.358 585.187 249.164 634.352 276.283C656.18 288.323 641.236 301.173 661.818 313.617C716.2 346.496 840.739 282.774 901.164 313.617C934.093 330.424 897.483 353.747 936.478 367.92C981.055 384.122 1035.36 355.177 1085.58 367.92C1127.37 378.525 1114.24 401.562 1156.21 412.042C1205.3 424.303 1260.67 394.977 1301.38 412.042C1322.06 420.707 1315.21 431.023 1332.77 440.89C1360.51 456.479 1386.52 463.677 1430.86 468.042" stroke="white" stroke-opacity="0.24"/>
<path d="M-248.201 152.402C-248.201 152.402 -242.327 183.171 -216.811 198.221C-183.978 217.586 -129.532 209.676 -91.2524 227.07C-67.5122 237.857 -71.6981 250.367 -44.1679 259.312C2.38505 274.439 54.77 246.526 104.933 259.312C137.723 267.671 135.915 282.507 167.712 291.555C211.908 304.131 266.004 284.623 301.118 301.737C320.761 311.31 310.277 322.227 328.584 332.283C377.877 359.358 483.452 305.164 532.617 332.283C554.445 344.323 539.501 357.173 560.083 369.617C614.465 402.496 739.004 338.774 799.429 369.617C832.358 386.424 795.748 409.747 834.743 423.92C879.32 440.122 933.622 411.177 983.844 423.92C1025.64 434.525 1012.51 457.562 1054.47 468.042C1103.57 480.303 1158.94 450.977 1199.65 468.042C1220.32 476.707 1213.48 487.023 1231.04 496.89C1258.78 512.479 1284.78 519.677 1329.13 524.042" stroke="white" stroke-opacity="0.24"/>
<path d="M-349.936 208.402C-349.936 208.402 -344.062 239.171 -318.546 254.221C-285.713 273.586 -231.267 265.676 -192.988 283.07C-169.247 293.857 -173.433 306.367 -145.903 315.312C-99.3501 330.439 -46.9651 302.526 3.19793 315.312C35.988 323.671 34.1804 338.507 65.9772 347.555C110.173 360.131 164.269 340.623 199.383 357.737C219.026 367.31 208.542 378.227 226.849 388.283C276.142 415.358 381.717 361.164 430.882 388.283C452.71 400.323 437.766 413.173 458.348 425.617C512.73 458.496 637.269 394.774 697.694 425.617C730.623 442.424 694.012 465.747 733.008 479.92C777.585 496.122 831.887 467.177 882.109 479.92C923.902 490.525 910.773 513.562 952.735 524.042C1001.83 536.303 1057.2 506.977 1097.91 524.042C1118.59 532.707 1111.74 543.023 1129.3 552.89C1157.04 568.479 1183.05 575.677 1227.39 580.042" stroke="white" stroke-opacity="0.24"/>
<path d="M-451.672 264.402C-451.672 264.402 -445.797 295.171 -420.281 310.221C-387.449 329.586 -333.003 321.676 -294.723 339.07C-270.983 349.857 -275.169 362.367 -247.638 371.312C-201.085 386.439 -148.7 358.526 -98.5374 371.312C-65.7473 379.671 -67.555 394.507 -35.7581 403.555C8.43752 416.131 62.5339 396.623 97.6479 413.737C117.29 423.31 106.806 434.227 125.114 444.283C174.407 471.358 279.982 417.164 329.147 444.283C350.975 456.323 336.031 469.173 356.613 481.617C410.995 514.496 535.533 450.774 595.959 481.617C628.887 498.424 592.277 521.747 631.272 535.92C675.849 552.122 730.151 523.177 780.373 535.92C822.167 546.525 809.037 569.562 851 580.042C900.098 592.303 955.465 562.977 996.177 580.042C1016.85 588.707 1010.01 599.023 1027.57 608.89C1055.31 624.479 1081.31 631.677 1125.66 636.042" stroke="white" stroke-opacity="0.24"/>
<path d="M-553.407 320.402C-553.407 320.402 -547.532 351.171 -522.016 366.221C-489.184 385.586 -434.738 377.676 -396.458 395.07C-372.718 405.857 -376.904 418.367 -349.373 427.312C-302.821 442.439 -250.436 414.526 -200.273 427.312C-167.482 435.671 -169.29 450.507 -137.493 459.555C-93.2976 472.131 -39.2013 452.623 -4.08718 469.737C15.5554 479.31 5.07104 490.227 23.3788 500.283C72.6716 527.358 178.247 473.164 227.412 500.283C249.24 512.323 234.295 525.173 254.878 537.617C309.26 570.496 433.798 506.774 494.224 537.617C527.152 554.424 490.542 577.747 529.537 591.92C574.114 608.122 628.416 579.177 678.638 591.92C720.432 602.525 707.302 625.562 749.265 636.042C798.363 648.303 853.73 618.977 894.442 636.042C915.115 644.707 908.273 655.023 925.832 664.89C953.57 680.479 979.577 687.677 1023.92 692.042" stroke="white" stroke-opacity="0.24"/>
<path d="M-35.4824 45.4023C-35.4824 45.4023 -29.6079 76.171 -4.09204 91.2208C28.7406 110.586 83.1865 102.676 121.466 120.07C145.207 130.857 141.021 143.367 168.551 152.312C215.104 167.439 267.489 139.526 317.652 152.312C350.442 160.671 348.634 175.507 380.431 184.555C424.627 197.131 478.723 177.623 513.837 194.737C533.48 204.31 522.995 215.227 541.303 225.283C590.596 252.358 696.171 198.164 745.336 225.283C767.164 237.323 752.22 250.173 772.802 262.617C827.184 295.496 951.723 231.774 1012.15 262.617C1045.08 279.424 1008.47 302.747 1047.46 316.92C1092.04 333.122 1146.34 304.177 1196.56 316.92C1238.36 327.525 1225.23 350.562 1267.19 361.042C1316.29 373.303 1371.65 343.977 1412.37 361.042C1433.04 369.707 1426.2 380.023 1443.76 389.89C1471.49 405.479 1497.5 412.677 1541.85 417.042" stroke="white" stroke-opacity="0.24"/>
<path d="M54.1851 -20.7227C54.1851 -20.7227 60.4396 12.1243 87.6057 28.1905C122.562 48.8639 180.529 40.419 221.285 58.9881C246.561 70.5041 242.104 83.8589 271.415 93.4086C320.979 109.557 376.752 79.758 430.16 93.4086C465.071 102.332 463.146 118.17 496.999 127.829C544.054 141.254 601.649 120.429 639.034 138.699C659.947 148.919 648.785 160.572 668.277 171.308C720.758 200.212 833.161 142.357 885.506 171.308C908.746 184.161 892.835 197.879 914.748 211.163C972.648 246.263 1105.24 178.237 1169.58 211.163C1204.63 229.106 1165.66 254.004 1207.17 269.134C1254.63 286.43 1312.45 255.53 1365.92 269.134C1410.41 280.456 1396.44 305.049 1441.11 316.236C1493.39 329.326 1552.33 298.018 1595.68 316.236C1617.69 325.487 1610.4 336.5 1629.1 347.033C1658.63 363.675 1686.32 371.36 1733.54 376.019" stroke="white" stroke-opacity="0.24"/>
<path d="M193.422 -60.5977C193.422 -60.5977 199.296 -29.7462 224.812 -14.6559C257.645 4.76157 312.091 -3.17037 350.371 14.2707C374.111 25.0871 369.925 37.6306 397.455 46.6001C444.008 61.7675 496.393 33.7788 546.556 46.6001C579.346 54.9811 577.539 69.8575 609.335 78.9296C653.531 91.5394 707.627 71.9792 742.742 89.1389C762.384 98.738 751.9 109.684 770.208 119.767C819.5 146.915 925.075 92.5751 974.24 119.767C996.068 131.839 981.124 144.724 1001.71 157.201C1056.09 190.169 1180.63 126.276 1241.05 157.201C1273.98 174.054 1237.37 197.44 1276.37 211.651C1320.94 227.896 1375.24 198.873 1425.47 211.651C1467.26 222.284 1454.13 245.383 1496.09 255.891C1545.19 268.185 1600.56 238.78 1641.27 255.891C1661.94 264.58 1655.1 274.923 1672.66 284.817C1700.4 300.448 1726.41 307.666 1770.75 312.042" stroke="white" stroke-opacity="0.24"/>
<path d="M297.469 -98.5977C297.469 -98.5977 303.344 -67.7462 328.86 -52.6559C361.692 -33.2384 416.138 -41.1704 454.418 -23.7293C478.158 -12.9129 473.972 -0.369425 501.503 8.60014C548.056 23.7675 600.441 -4.2212 650.604 8.60014C683.394 16.9811 681.586 31.8575 713.383 40.9296C757.579 53.5394 811.675 33.9792 846.789 51.1389C866.431 60.738 855.947 71.6838 874.255 81.7669C923.548 108.915 1029.12 54.5751 1078.29 81.7669C1100.12 93.8394 1085.17 106.724 1105.75 119.201C1160.14 152.169 1284.67 88.2757 1345.1 119.201C1378.03 136.054 1341.42 159.44 1380.41 173.651C1424.99 189.896 1479.29 160.873 1529.51 173.651C1571.31 184.284 1558.18 207.383 1600.14 217.891C1649.24 230.185 1704.61 200.78 1745.32 217.891C1765.99 226.58 1759.15 236.923 1776.71 246.817C1804.45 262.448 1830.45 269.666 1874.8 274.042" stroke="white" stroke-opacity="0.24"/>
<path d="M408.453 -138.598C408.453 -138.598 414.328 -107.746 439.844 -92.6559C472.676 -73.2384 527.122 -81.1704 565.402 -63.7293C589.142 -52.9129 584.956 -40.3694 612.487 -31.3999C659.039 -16.2325 711.424 -44.2212 761.587 -31.3999C794.378 -23.0189 792.57 -8.14254 824.367 0.929621C868.562 13.5394 922.659 -6.02083 957.773 11.1389C977.415 20.738 966.931 31.6838 985.239 41.7669C1034.53 68.915 1140.11 14.5751 1189.27 41.7669C1211.1 53.8394 1196.16 66.7237 1216.74 79.201C1271.12 112.169 1395.66 48.2757 1456.08 79.201C1489.01 96.0535 1452.4 119.44 1491.4 133.651C1535.97 149.896 1590.28 120.873 1640.5 133.651C1682.29 144.284 1669.16 167.383 1711.12 177.891C1760.22 190.185 1815.59 160.78 1856.3 177.891C1876.98 186.58 1870.13 196.923 1887.69 206.817C1915.43 222.448 1941.44 229.666 1985.78 234.042" stroke="white" stroke-opacity="0.24"/>
<path d="M438.511 -150.598C438.511 -150.598 444.386 -119.746 469.901 -104.656C502.734 -85.2384 557.18 -93.1704 595.46 -75.7293C619.2 -64.9129 615.014 -52.3694 642.544 -43.3999C689.097 -28.2325 741.482 -56.2212 791.645 -43.3999C824.435 -35.0189 822.628 -20.1425 854.425 -11.0704C898.62 1.53937 952.717 -18.0208 987.831 -0.861061C1007.47 8.73798 996.989 19.6838 1015.3 29.7669C1064.59 56.915 1170.16 2.5751 1219.33 29.7669C1241.16 41.8394 1226.21 54.7237 1246.8 67.201C1301.18 100.169 1425.72 36.2757 1486.14 67.201C1519.07 84.0535 1482.46 107.44 1521.45 121.651C1566.03 137.896 1620.33 108.873 1670.56 121.651C1712.35 132.284 1699.22 155.383 1741.18 165.891C1790.28 178.185 1845.65 148.78 1886.36 165.891C1907.03 174.58 1900.19 184.923 1917.75 194.817C1945.49 210.448 1971.49 217.666 2015.84 222.042" stroke="white" stroke-opacity="0.24"/>
<path d="M-119.625 92.4023C-119.625 92.4023 -113.75 123.171 -88.2341 138.221C-55.4015 157.586 -0.95557 149.676 37.3244 167.07C61.0646 177.857 56.8787 190.367 84.4089 199.312C130.962 214.439 183.347 186.526 233.51 199.312C266.3 207.671 264.492 222.507 296.289 231.555C340.485 244.131 394.581 224.623 429.695 241.737C449.338 251.31 438.853 262.227 457.161 272.283C506.454 299.358 612.029 245.164 661.194 272.283C683.022 284.323 668.078 297.173 688.66 309.617C743.042 342.496 867.58 278.774 928.006 309.617C960.935 326.424 924.324 349.747 963.319 363.92C1007.9 380.122 1062.2 351.177 1112.42 363.92C1154.21 374.525 1141.08 397.562 1183.05 408.042C1232.14 420.303 1287.51 390.977 1328.22 408.042C1348.9 416.707 1342.06 427.023 1359.61 436.89C1387.35 452.479 1413.36 459.677 1457.71 464.042" stroke="white" stroke-opacity="0.24"/>
<path d="M-221.36 148.402C-221.36 148.402 -215.485 179.171 -189.969 194.221C-157.137 213.586 -102.691 205.676 -64.411 223.07C-40.6708 233.857 -44.8566 246.367 -17.3265 255.312C29.2265 270.439 81.6115 242.526 131.774 255.312C164.565 263.671 162.757 278.507 194.554 287.555C238.749 300.131 292.846 280.623 327.96 297.737C347.602 307.31 337.118 318.227 355.426 328.283C404.719 355.358 510.294 301.164 559.459 328.283C581.287 340.323 566.342 353.173 586.925 365.617C641.307 398.496 765.845 334.774 826.271 365.617C859.199 382.424 822.589 405.747 861.584 419.92C906.161 436.122 960.463 407.177 1010.69 419.92C1052.48 430.525 1039.35 453.562 1081.31 464.042C1130.41 476.303 1185.78 446.977 1226.49 464.042C1247.16 472.707 1240.32 483.023 1257.88 492.89C1285.62 508.479 1311.62 515.677 1355.97 520.042" stroke="white" stroke-opacity="0.24"/>
<path d="M-323.095 204.402C-323.095 204.402 -317.22 235.171 -291.705 250.221C-258.872 269.586 -204.426 261.676 -166.146 279.07C-142.406 289.857 -146.592 302.367 -119.062 311.312C-72.5086 326.439 -20.1236 298.526 30.0394 311.312C62.8294 319.671 61.0218 334.507 92.8186 343.555C137.014 356.131 191.111 336.623 226.225 353.737C245.867 363.31 235.383 374.227 253.691 384.283C302.984 411.358 408.559 357.164 457.723 384.283C479.552 396.323 464.607 409.173 485.189 421.617C539.572 454.496 664.11 390.774 724.536 421.617C757.464 438.424 720.854 461.747 759.849 475.92C804.426 492.122 858.728 463.177 908.95 475.92C950.744 486.525 937.614 509.562 979.577 520.042C1028.67 532.303 1084.04 502.977 1124.75 520.042C1145.43 528.707 1138.58 539.023 1156.14 548.89C1183.88 564.479 1209.89 571.677 1254.24 576.042" stroke="white" stroke-opacity="0.24"/>
<path d="M-424.83 260.402C-424.83 260.402 -418.955 291.171 -393.44 306.221C-360.607 325.586 -306.161 317.676 -267.881 335.07C-244.141 345.857 -248.327 358.367 -220.797 367.312C-174.244 382.439 -121.859 354.526 -71.6956 367.312C-38.9055 375.671 -40.7132 390.507 -8.91634 399.555C35.2793 412.131 89.3757 392.623 124.49 409.737C144.132 419.31 133.648 430.227 151.956 440.283C201.249 467.358 306.824 413.164 355.988 440.283C377.817 452.323 362.872 465.173 383.454 477.617C437.837 510.496 562.375 446.774 622.801 477.617C655.729 494.424 619.119 517.747 658.114 531.92C702.691 548.122 756.993 519.177 807.215 531.92C849.009 542.525 835.879 565.562 877.842 576.042C926.939 588.303 982.307 558.977 1023.02 576.042C1043.69 584.707 1036.85 595.023 1054.41 604.89C1082.15 620.479 1108.15 627.677 1152.5 632.042" stroke="white" stroke-opacity="0.24"/>
<path d="M-526.565 316.402C-526.565 316.402 -520.691 347.171 -495.175 362.221C-462.342 381.586 -407.896 373.676 -369.616 391.07C-345.876 401.857 -350.062 414.367 -322.532 423.312C-275.979 438.439 -223.594 410.526 -173.431 423.312C-140.641 431.671 -142.448 446.507 -110.652 455.555C-66.4559 468.131 -12.3596 448.623 22.7545 465.737C42.397 475.31 31.9127 486.227 50.2205 496.283C99.5133 523.358 205.088 469.164 254.253 496.283C276.081 508.323 261.137 521.173 281.719 533.617C336.101 566.496 460.64 502.774 521.065 533.617C553.994 550.424 517.384 573.747 556.379 587.92C600.956 604.122 655.258 575.177 705.48 587.92C747.273 598.525 734.144 621.562 776.106 632.042C825.204 644.303 880.572 614.977 921.284 632.042C941.957 640.707 935.115 651.023 952.673 660.89C980.412 676.479 1006.42 683.677 1050.77 688.042" stroke="white" stroke-opacity="0.24"/>
<path d="M-35.6494 34.8086C-35.6494 34.8086 -29.7748 65.5773 -4.25903 80.6271C28.5736 99.9924 83.0195 92.0818 121.299 109.476C145.04 120.263 140.854 132.773 168.384 141.719C214.937 156.845 267.322 128.932 317.485 141.719C350.275 150.077 348.467 164.914 380.264 173.961C424.46 186.537 478.556 167.03 513.67 184.143C533.313 193.717 522.829 204.633 541.136 214.689C590.429 241.764 696.004 187.57 745.169 214.689C766.997 226.729 752.053 239.579 772.635 252.023C827.017 284.902 951.556 221.18 1011.98 252.023C1044.91 268.83 1008.3 292.153 1047.29 306.326C1091.87 322.528 1146.17 293.583 1196.4 306.326C1238.19 316.931 1225.06 339.968 1267.02 350.448C1316.12 362.709 1371.49 333.383 1412.2 350.448C1432.87 359.114 1426.03 369.429 1443.59 379.297C1471.33 394.885 1497.33 402.084 1541.68 406.448" stroke="white" stroke-opacity="0.24"/>
<path d="M33.4231 -16.8438C33.4231 -16.8438 39.6776 15.915 66.8438 31.9382C101.8 52.5561 159.767 44.1338 200.523 62.6531C225.799 74.1382 221.342 87.4571 250.653 96.9812C300.217 113.086 355.99 83.3672 409.398 96.9812C444.309 105.88 442.384 121.676 476.238 131.309C523.292 144.699 580.887 123.929 618.272 142.15C639.185 152.342 628.023 163.965 647.515 174.671C699.996 203.498 812.399 145.798 864.744 174.671C887.984 187.49 872.073 201.171 893.986 214.42C951.886 249.425 1084.48 181.582 1148.81 214.42C1183.87 232.314 1144.89 257.146 1186.41 272.235C1233.87 289.485 1291.68 258.668 1345.16 272.235C1389.65 283.526 1375.67 308.054 1420.35 319.211C1472.62 332.265 1531.57 301.042 1574.92 319.211C1596.93 328.437 1589.64 339.42 1608.34 349.925C1637.87 366.522 1665.56 374.186 1712.77 378.833" stroke="white" stroke-opacity="0.24"/>
<path d="M128.101 -68.5664C128.101 -68.5664 134.356 -35.8076 161.522 -19.7845C196.478 0.833447 254.445 -7.58886 295.201 10.9304C320.477 22.4156 316.02 35.7345 345.331 45.2586C394.895 61.3636 450.668 31.6446 504.076 45.2586C538.987 54.1576 537.062 69.9537 570.915 79.5867C617.97 92.976 675.565 72.2066 712.95 90.4272C733.863 100.62 722.701 112.242 742.193 122.949C794.674 151.775 907.077 94.0758 959.422 122.949C982.662 135.767 966.751 149.448 988.664 162.697C1046.56 197.703 1179.16 129.86 1243.49 162.697C1278.55 180.591 1239.57 205.423 1281.09 220.513C1328.55 237.762 1386.36 206.945 1439.83 220.513C1484.33 231.804 1470.35 256.331 1515.03 267.488C1567.3 280.543 1626.25 249.319 1669.59 267.488C1691.61 276.714 1684.32 287.697 1703.01 298.203C1732.55 314.8 1760.24 322.464 1807.45 327.111" stroke="white" stroke-opacity="0.24"/>
<path d="M283.228 -95.7539C283.228 -95.7539 289.103 -64.9852 314.619 -49.9354C347.451 -30.5701 401.897 -38.4807 440.177 -21.0865C463.917 -10.2991 459.731 2.21074 487.262 11.1562C533.815 26.2829 586.2 -1.6307 636.363 11.1562C669.153 19.5147 667.345 34.3511 699.142 43.399C743.338 55.9749 797.434 36.4672 832.548 53.5809C852.19 63.1542 841.706 74.0706 860.014 84.1266C909.307 111.202 1014.88 57.0078 1064.05 84.1266C1085.87 96.1667 1070.93 109.016 1091.51 121.46C1145.89 154.339 1270.43 90.6179 1330.86 121.46C1363.79 138.268 1327.18 161.591 1366.17 175.764C1410.75 191.965 1465.05 163.02 1515.27 175.764C1557.07 186.369 1543.94 209.406 1585.9 219.885C1635 232.147 1690.37 202.82 1731.08 219.885C1751.75 228.551 1744.91 238.867 1762.47 248.734C1790.21 264.323 1816.21 271.521 1860.56 275.886" stroke="white" stroke-opacity="0.24"/>
<path d="M386.438 -134.941C386.438 -134.941 392.312 -104.173 417.828 -89.1229C450.661 -69.7576 505.107 -77.6682 543.387 -60.274C567.127 -49.4866 562.941 -36.9768 590.471 -28.0313C637.024 -12.9046 689.409 -40.8182 739.572 -28.0313C772.362 -19.6728 770.555 -4.83636 802.351 4.21145C846.547 16.7874 900.643 -2.72034 935.757 14.3934C955.4 23.9667 944.916 34.8831 963.223 44.9391C1012.52 72.0144 1118.09 17.8203 1167.26 44.9391C1189.08 56.9792 1174.14 69.829 1194.72 82.2728C1249.1 115.152 1373.64 51.4304 1434.07 82.2728C1467 99.0801 1430.39 122.403 1469.38 136.576C1513.96 152.778 1568.26 123.833 1618.48 136.576C1660.28 147.181 1647.15 170.218 1689.11 180.698C1738.21 192.959 1793.57 163.633 1834.29 180.698C1854.96 189.364 1848.12 199.679 1865.68 209.547C1893.41 225.135 1919.42 232.334 1963.77 236.698" stroke="white" stroke-opacity="0.24"/>
<path d="M463.477 -154.535C463.477 -154.535 469.351 -123.766 494.867 -108.717C527.7 -89.3513 582.146 -97.262 620.425 -79.8677C644.166 -69.0803 639.98 -56.5705 667.51 -47.625C714.063 -32.4984 766.448 -60.412 816.611 -47.625C849.401 -39.2666 847.593 -24.4301 879.39 -15.3823C923.586 -2.80639 977.682 -22.3141 1012.8 -5.20037C1032.44 4.3729 1021.95 15.2894 1040.26 25.3454C1089.56 52.4207 1195.13 -1.77343 1244.3 25.3454C1266.12 37.3855 1251.18 50.2352 1271.76 62.679C1326.14 95.5581 1450.68 31.8367 1511.11 62.679C1544.04 79.4864 1507.43 102.81 1546.42 116.983C1591 133.184 1645.3 104.239 1695.52 116.983C1737.32 127.587 1724.19 150.625 1766.15 161.104C1815.25 173.366 1870.61 144.039 1911.33 161.104C1932 169.77 1925.16 180.086 1942.72 189.953C1970.45 205.541 1996.46 212.74 2040.81 217.105" stroke="white" stroke-opacity="0.24"/>
<path d="M540.515 -174.129C540.515 -174.129 546.39 -143.36 571.906 -128.31C604.738 -108.945 659.184 -116.856 697.464 -99.4615C721.204 -88.6741 717.018 -76.1643 744.549 -67.2188C791.101 -52.0921 843.486 -80.0057 893.649 -67.2188C926.44 -58.8603 924.632 -44.0239 956.429 -34.976C1000.62 -22.4001 1054.72 -41.9078 1089.83 -24.7941C1109.48 -15.2208 1098.99 -4.30437 1117.3 5.75162C1166.59 32.8269 1272.17 -21.3672 1321.33 5.75162C1343.16 17.7917 1328.22 30.6415 1348.8 43.0853C1403.18 75.9644 1527.72 12.2429 1588.15 43.0853C1621.07 59.8926 1584.46 83.216 1623.46 97.3888C1668.04 113.59 1722.34 84.6453 1772.56 97.3888C1814.35 107.994 1801.22 131.031 1843.19 141.51C1892.28 153.772 1947.65 124.445 1988.36 141.51C2009.04 150.176 2002.2 160.492 2019.75 170.359C2047.49 185.948 2073.5 193.146 2117.85 197.511" stroke="white" stroke-opacity="0.24"/>
</svg>
