<svg xmlns="http://www.w3.org/2000/svg" width="18" height="16" viewBox="0 0 18 16" fill="none">
  <path fill-rule="evenodd" clip-rule="evenodd" d="M13.8075 4.98483H17.3334C17.3334 2.15383 15.6371 0.5 12.763 0.5H5.23712C2.36304 0.5 0.666748 2.15383 0.666748 4.94872V11.0513C0.666748 13.8462 2.36304 15.5 5.23712 15.5H12.763C15.6371 15.5 17.3334 13.8462 17.3334 11.0513V10.7913H13.8075C12.1711 10.7913 10.8445 9.49793 10.8445 7.9025C10.8445 6.30707 12.1711 5.01372 13.8075 5.01372V4.98483ZM13.8075 6.22701H16.7112C17.0548 6.22701 17.3334 6.49861 17.3334 6.83365V8.94246C17.3294 9.27588 17.0532 9.54521 16.7112 9.54911H13.8742C13.0457 9.55998 12.3213 9.00698 12.1334 8.22027C12.0393 7.73191 12.1714 7.22797 12.4943 6.84351C12.8172 6.45906 13.2979 6.2334 13.8075 6.22701ZM13.9334 8.44415H14.2075C14.5593 8.44415 14.8445 8.16608 14.8445 7.82306C14.8445 7.48004 14.5593 7.20197 14.2075 7.20197H13.9334C13.7651 7.20004 13.6031 7.26387 13.4834 7.3792C13.3637 7.49453 13.2964 7.65177 13.2964 7.81584C13.2964 8.16005 13.5804 8.44019 13.9334 8.44415ZM4.6149 4.98483H9.3186C9.67043 4.98483 9.95564 4.70676 9.95564 4.36375C9.95564 4.02073 9.67043 3.74266 9.3186 3.74266H4.6149C4.26594 3.74263 3.98192 4.01633 3.97786 4.35652C3.97784 4.70073 4.26188 4.98088 4.6149 4.98483Z" fill="#959697"/>
</svg>