<svg xmlns="http://www.w3.org/2000/svg" width="18" height="18" viewBox="0 0 18 18" fill="none">
  <path fill-rule="evenodd" clip-rule="evenodd" d="M9.27207 0.840735C9.40514 0.721284 9.58118 0.658671 9.76136 0.666703C13.5704 0.780728 16.7537 3.54585 17.3307 7.24154C17.3343 7.26361 17.3343 7.28611 17.3307 7.30818C17.3431 7.48304 17.284 7.65555 17.1664 7.78756C17.0489 7.91956 16.8826 8.00017 16.7043 8.01157L10.3047 8.4336C10.0931 8.45236 9.8832 8.38272 9.72662 8.24178C9.57004 8.10084 9.48127 7.90167 9.48214 7.69319L9.05198 1.40711V1.30346C9.05981 1.12666 9.13899 0.960185 9.27207 0.840735ZM8.83312 10.0773L14.3582 9.73672H14.4177C14.6558 9.74061 14.8827 9.8372 15.0483 10.0052C15.2139 10.1732 15.3047 10.3989 15.3006 10.6326C15.082 13.8177 12.7469 16.4789 9.56906 17.1645C6.39123 17.8502 3.13356 16.3955 1.57323 13.5943C1.11443 12.7874 0.8245 11.8988 0.72046 10.9806C0.680107 10.7085 0.66244 10.4337 0.667633 10.1588C0.67815 6.7719 3.08948 3.84857 6.46347 3.13227C6.87192 3.05582 7.28143 3.25975 7.45963 3.62834C7.54767 3.76108 7.57048 3.9236 7.58086 4.08254C7.63927 4.97761 7.69948 5.86524 7.75947 6.74944C7.81106 7.50996 7.86248 8.26795 7.91243 9.02593C7.90985 9.20448 7.93792 9.3822 7.99544 9.55162C8.13087 9.88497 8.46788 10.0965 8.83312 10.0773Z" fill="#959697"/>
</svg>