<svg width="20" height="20" viewBox="0 0 20 20" fill="none" xmlns="http://www.w3.org/2000/svg">
<g id="Messenger">
<g id="messenger message fb facebook">
<path id="Vector" d="M10 1.875C5.51875 1.875 1.875 5.2375 1.875 9.375C1.87702 10.865 2.3519 12.3159 3.23125 13.5187C3.27926 13.5856 3.33998 13.6424 3.40994 13.6858C3.4799 13.7293 3.55773 13.7585 3.63898 13.7718C3.72023 13.7852 3.80331 13.7824 3.88349 13.7636C3.96366 13.7449 4.03936 13.7105 4.10625 13.6625C4.17314 13.6145 4.22992 13.5538 4.27335 13.4838C4.31677 13.4138 4.34599 13.336 4.35934 13.2548C4.37269 13.1735 4.36991 13.0904 4.35114 13.0103C4.33238 12.9301 4.29801 12.8544 4.25 12.7875C3.52127 11.7988 3.12715 10.6033 3.125 9.375C3.125 5.93125 6.20625 3.125 10 3.125C13.7937 3.125 16.875 5.93125 16.875 9.375C16.875 12.8188 13.7937 15.625 10 15.625C9.28927 15.6257 8.58211 15.5247 7.9 15.325C7.80685 15.2978 7.70866 15.2927 7.6132 15.3101C7.51773 15.3274 7.42762 15.3668 7.35 15.425L6.25 16.25V14.95C6.25 14.7842 6.18415 14.6253 6.06694 14.5081C5.94973 14.3908 5.79076 14.325 5.625 14.325C5.45924 14.325 5.30027 14.3908 5.18306 14.5081C5.06585 14.6253 5 14.7842 5 14.95V17.5C5.00035 17.6154 5.03265 17.7285 5.09333 17.8267C5.154 17.9248 5.24068 18.0043 5.34375 18.0562C5.44364 18.1028 5.55406 18.1221 5.66382 18.1123C5.77358 18.1024 5.87878 18.0636 5.96875 18L7.84375 16.6062C8.54812 16.7873 9.27274 16.8776 10 16.875C14.4812 16.875 18.125 13.5125 18.125 9.375C18.125 5.2375 14.4812 1.875 10 1.875Z" fill="#00A2D4"/>
<path id="Vector_2" d="M5.28122 12.4311L8.62497 10.7624L9.74372 11.8749C9.97793 12.1077 10.2947 12.2384 10.625 12.2384C10.9552 12.2384 11.272 12.1077 11.5062 11.8749L15.4437 7.94364C15.5496 7.83861 15.6144 7.69919 15.6264 7.55055C15.6385 7.40192 15.597 7.25388 15.5095 7.13315C15.422 7.01242 15.2942 6.92696 15.1491 6.89221C15.0041 6.85746 14.8515 6.8757 14.7187 6.94364L11.375 8.61239L10.2562 7.49989C10.022 7.26708 9.7052 7.1364 9.37497 7.1364C9.04474 7.1364 8.72793 7.26708 8.49372 7.49989L4.55622 11.4311C4.46808 11.5186 4.40797 11.6303 4.38355 11.752C4.35913 11.8737 4.37151 11.9999 4.41912 12.1146C4.46672 12.2292 4.54739 12.3271 4.65084 12.3957C4.75429 12.4644 4.87583 12.5006 4.99997 12.4999C5.09802 12.5011 5.19477 12.4774 5.28122 12.4311ZM9.37497 8.38114L10.8062 9.81864C10.8376 9.84723 10.8735 9.87045 10.9125 9.88739C10.9421 9.91204 10.976 9.9311 11.0125 9.94364H11.1187C11.1602 9.9498 11.2023 9.9498 11.2437 9.94364C11.2791 9.94666 11.3146 9.94666 11.35 9.94364C11.3958 9.93988 11.4404 9.92714 11.4812 9.90614L11.7875 9.75614L10.625 10.9936L9.19372 9.55614C9.15653 9.52754 9.11678 9.50244 9.07497 9.48114C9.04584 9.46078 9.01436 9.444 8.98122 9.43114H8.86872C8.83245 9.40607 8.79235 9.38708 8.74997 9.37489C8.71462 9.37188 8.67907 9.37188 8.64372 9.37489C8.59794 9.37866 8.55334 9.3914 8.51247 9.41239L8.20622 9.56239L9.37497 8.38114Z" fill="#00A2D4"/>
</g>
</g>
</svg>
