<svg width="20" height="20" viewBox="0 0 20 20" fill="none" xmlns="http://www.w3.org/2000/svg">
<g id="Telegram">
<path id="telegram social media network chat" d="M17.8688 2.68203C17.675 2.51925 17.4406 2.41231 17.1906 2.37267C16.9407 2.33303 16.6846 2.3622 16.45 2.45703L2.13127 8.18828C1.92254 8.27498 1.74418 8.42158 1.61871 8.60957C1.49323 8.79756 1.42627 9.01851 1.42627 9.24453C1.42627 9.47055 1.49323 9.6915 1.61871 9.87949C1.74418 10.0675 1.92254 10.2141 2.13127 10.3008L3.05627 10.682C3.20878 10.7465 3.38067 10.7479 3.53418 10.6858C3.68769 10.6237 3.81028 10.5032 3.87502 10.3508C3.90678 10.2749 3.92325 10.1935 3.92347 10.1112C3.92369 10.0289 3.90766 9.94738 3.8763 9.87132C3.84494 9.79525 3.79888 9.72612 3.74074 9.66789C3.6826 9.60967 3.61354 9.5635 3.53752 9.53203L2.85002 9.25078L16.9188 3.62578C16.9404 3.61252 16.9653 3.6055 16.9906 3.6055C17.016 3.6055 17.0409 3.61252 17.0625 3.62578C17.0829 3.6431 17.0983 3.66557 17.1071 3.69084C17.1159 3.71612 17.1178 3.74329 17.1125 3.76953L14.5438 15.757C14.5353 15.7997 14.5159 15.8395 14.4874 15.8724C14.4589 15.9052 14.4223 15.9301 14.3813 15.9445C14.341 15.9605 14.2971 15.9655 14.2543 15.9589C14.2115 15.9523 14.1711 15.9344 14.1375 15.907L9.13752 12.007L14.0313 7.06328C14.1358 6.95482 14.1977 6.81225 14.2054 6.66181C14.2132 6.51137 14.1664 6.36318 14.0736 6.24452C13.9808 6.12586 13.8483 6.04471 13.7004 6.016C13.5525 5.98729 13.3992 6.01296 13.2688 6.08828L6.09377 10.3383C6.01408 10.3743 5.94283 10.4266 5.88464 10.4919C5.82645 10.5572 5.7826 10.634 5.75593 10.7172C5.72927 10.8005 5.72038 10.8885 5.72984 10.9754C5.7393 11.0624 5.7669 11.1464 5.81085 11.222C5.85481 11.2976 5.91414 11.3631 5.98501 11.4143C6.05589 11.4656 6.13672 11.5014 6.22229 11.5194C6.30787 11.5374 6.39627 11.5373 6.48179 11.519C6.56731 11.5007 6.64805 11.4647 6.71877 11.4133L9.73752 9.63203L8.26877 11.1258C8.13441 11.252 8.02963 11.4064 7.96196 11.5779C7.89428 11.7494 7.86538 11.9338 7.87733 12.1178C7.88928 12.3017 7.94177 12.4808 8.03106 12.6421C8.12034 12.8034 8.24421 12.943 8.39377 13.0508L13.3938 16.8945C13.6569 17.0976 13.9801 17.2075 14.3125 17.207C14.4895 17.2058 14.665 17.174 14.8313 17.1133C15.07 17.0276 15.2828 16.882 15.4491 16.6905C15.6155 16.499 15.7298 16.2679 15.7813 16.0195L18.3313 4.04453C18.3854 3.79683 18.3709 3.53907 18.2894 3.29898C18.2079 3.0589 18.0625 2.84559 17.8688 2.68203Z" fill="#00A2D4"/>
</g>
</svg>
