<svg width="20" height="20" viewBox="0 0 20 20" fill="none" xmlns="http://www.w3.org/2000/svg">
<g id="whatsapp">
<path id="Vector" d="M13.8334 11.6673C13.6667 11.584 12.5834 11.084 12.4167 11.0007C12.2501 10.9173 12.0834 10.9173 11.9167 11.084C11.7501 11.2507 11.4167 11.7507 11.2501 11.9173C11.1667 12.084 11.0001 12.084 10.8334 12.0007C10.2501 11.7507 9.66675 11.4173 9.16675 11.0007C8.75008 10.584 8.33342 10.084 8.00008 9.58398C7.91675 9.41732 8.00008 9.25065 8.08341 9.16732C8.16675 9.08398 8.25008 8.91732 8.41675 8.83398C8.50008 8.75065 8.58341 8.58398 8.58341 8.50065C8.66675 8.41732 8.66675 8.25065 8.58341 8.16732C8.50008 8.08398 8.08341 7.08398 7.91675 6.66732C7.83341 6.08398 7.66675 6.08398 7.50008 6.08398H7.08341C6.91675 6.08398 6.66675 6.25065 6.58341 6.33398C6.08341 6.83398 5.83341 7.41732 5.83341 8.08398C5.91675 8.83398 6.16675 9.58398 6.66675 10.2507C7.58341 11.584 8.75008 12.6673 10.1667 13.334C10.5834 13.5007 10.9167 13.6673 11.3334 13.7507C11.7501 13.9173 12.1667 13.9173 12.6667 13.834C13.2501 13.7507 13.7501 13.334 14.0834 12.834C14.2501 12.5007 14.2501 12.1673 14.1667 11.834L13.8334 11.6673ZM15.9167 4.08398C12.6667 0.833984 7.41675 0.833984 4.16675 4.08398C1.50008 6.75065 1.00008 10.834 2.83341 14.084L1.66675 18.334L6.08341 17.1673C7.33341 17.834 8.66675 18.1673 10.0001 18.1673C14.5834 18.1673 18.2501 14.5007 18.2501 9.91732C18.3334 7.75065 17.4167 5.66732 15.9167 4.08398ZM13.6667 15.7507C12.5834 16.4173 11.3334 16.834 10.0001 16.834C8.75008 16.834 7.58341 16.5007 6.50008 15.9173L6.25008 15.7507L3.66675 16.4173L4.33341 13.9173L4.16675 13.6673C2.16675 10.334 3.16675 6.16732 6.41675 4.08398C9.66675 2.00065 13.8334 3.08398 15.8334 6.25065C17.8334 9.50065 16.9167 13.7507 13.6667 15.7507Z" fill="#00A2D4"/>
</g>
</svg>
